<?xml version="1.0" encoding="UTF-8"?>
<svg id="Layer_2" data-name="Layer 2" xmlns="http://www.w3.org/2000/svg" viewBox="0 0 1112.55 1029.92">
  <defs>
    <style>
      .cls-1 {
        font-size: 82.2px;
      }

      .cls-1, .cls-2 {
        fill: #fefff4;
        font-family: CanelaText-Bold, 'Canela Text';
        font-weight: 700;
        stroke: #000;
        stroke-miterlimit: 10;
      }

      .cls-3 {
        fill: #000;
      }

      .cls-3, .cls-4 {
        stroke-width: 0px;
      }

      .cls-5 {
        letter-spacing: .01em;
      }

      .cls-6 {
        letter-spacing: -.1em;
      }

      .cls-7 {
        letter-spacing: -.04em;
      }

      .cls-2 {
        font-size: 148.35px;
      }

      .cls-8 {
        letter-spacing: 0em;
      }

      .cls-9 {
        letter-spacing: 0em;
      }

      .cls-10 {
        letter-spacing: 0em;
      }

      .cls-4 {
        fill: #fff;
      }
    </style>
  </defs>
  <g id="Layer_1-2" data-name="Layer 1">
    <path class="cls-3" d="M823.22,484.32c11.83,2.24,12.93,1.35,13.04-8.82.22-20.14.48-40.27.76-60.41.04-2.99.31-5.97.52-9.95,1.97,1.67,3.18,2.69,5.31,4.5,6.28-14.18-.67-29.65,6.33-43.21,6.34,12.08,1.39,25.99,6.63,40.71,1.14-3.81,2.07-5.63,2.18-7.51.57-9.15.71-18.34,1.49-27.47.19-2.26,2.19-4.36,3.35-6.53,1.23,2.11,3.38,4.17,3.53,6.35.86,12.88,1.24,25.79,1.79,38.69.7.16,1.41.32,2.11.48.87-2.83,2.44-5.64,2.51-8.49.31-12.99.14-26,.27-39,.04-3.9-1.51-5.46-5.45-5.38-8.08.17-16.16.05-24.66.05,6.55-12.04,9.14-13.45,21.05-10.55,10.52,2.55,21.55,3.41,30.64,10.67,3.39,2.71,4.83,5.04,4.82,9.28-.1,29.83.04,59.65.1,89.48,0,2.72,0,5.44,1.78,8.99,4.89-6.52,9.78-13.04,15.31-20.42,13.04,7.58,26.29,15.06,39.22,23.05,1.79,1.11,2.66,4.74,2.82,7.27.39,6.29.13,12.61.13,19.35h29.95c-.66-9.46-1.07-18.5-1.96-27.49-7.37-74.29-33.44-141.59-75.7-202.91-46.94-68.11-107.27-121.1-180.78-158.66-48.55-24.8-100.2-38.6-155.08-41.06-130.89-5.86-240.44,40.52-331.44,133.24-61.72,62.89-104.43,136.42-121.95,223.33-4.5,22.33-6.04,45.27-8.64,67.97-.3,2.59,1.4,5.4,2.48,9.19-8.43,10.08-17.88,21.38-27.93,33.39,0-13.18-.67-26.03.11-38.79,3.52-57.32,15.33-112.96,39.06-165.3C184.99,200.31,279.71,111.08,412.42,63.11c52.92-19.13,107.81-25.52,163.67-22.58,98.42,5.18,183.52,43.37,258.77,105.84,57.97,48.13,103.7,105.65,135.88,173.76,18.57,39.3,30.94,80.55,37.34,123.62,3.97,26.74,6.83,53.47,5.66,80.56-.42,9.71,2.91,17.92,12.2,22.81,19.59,10.3,39.11,20.74,58.67,31.11,2.43,1.29,4.89,2.52,7.74,3.98-11.05,4.33-1057.51,4.17-1071.22-.32,36.11-18.03,72.83-33.87,97.82-68.13.8,5.46,1.59,10.89,2.38,16.32,1.17-.03,2.34-.06,3.51-.09v-35.76c9.09,1.99,15.6,3.41,22.02,4.81.01-5.26,4.69-7.17,10.82-7.72,8.94-.81,11.38-3.51,11.61-12.54.16-6.11.11-12.24.14-18.35.07-11.63,4.92-20.79,16.86-29.65v33.57c1.15,0,2.3,0,3.46,0,3.31-11.96.16-24.68,2.7-37.27,2.69-.23,5.38-.47,8.89-.77.58,6.26,1.12,12.13,1.66,18,.7.11,1.4.22,2.1.33,1.44-5.7,3.92-11.36,4.14-17.11,1.04-26.74,1.45-53.51,2.1-80.26.11-4.39-.44-9.42,8.48-7.04v85.42c.95.06,1.9.12,2.85.18.39-6.22.78-12.43,1.16-18.65.26,0,.53,0,.79,0,.19,2.24.38,4.48.57,6.71l.67.03c.57-21.57,1.14-43.13,1.7-64.7.05-2.04-.38-4.23.24-6.07.51-1.51,2.21-3.62,3.43-3.65,1.45-.04,3.75,1.57,4.25,2.98.82,2.3.56,5.02.61,7.56.29,15.54.15,31.11.99,46.62.3,5.47,2.97,10.82,5.95,15.94,0-24.21-.3-48.43.18-72.63.15-7.62-2.51-9.61-9.6-9.24-9.57.5-19.2.12-29.38.12,9.65-15.33,15.34-17.68,30.76-12.94,12.89,3.97,25.63,8.41,38.55,12.23,5.05,1.49,6.65,4.05,6.57,9.27-.27,19.37-.08,38.75,0,58.12.01,3.51.31,7.01.49,10.91h30.75c0-17.62-.01-34.89,0-52.16.02-17.59.02-35.18.11-52.77.09-17.33-.09-34.68.52-52,.59-16.91-1.71-34.05,1.89-50.77,1.05-.07,2.11-.14,3.17-.2.42,3.2,1.19,6.39,1.21,9.59.3,41.3.49,82.59.71,123.89,0,1.7,0,3.39.4,5.09.6-9.88,1.21-19.76,1.81-29.64.42,0,.84-.02,1.26-.03.26,5.81.52,11.62.78,17.42.37,0,.74-.02,1.12-.03,0-29.04-.09-58.09.05-87.13.05-10.41.47-20.82,1.15-31.2.14-2.2,2.17-4.28,3.33-6.42,1.16,2.11,3.31,4.2,3.34,6.32.38,26.51.32,53.02.71,79.53.1,6.58,1.42,13.15,2.18,19.72.93-.07,1.86-.15,2.79-.22,0-6.23-.02-12.45,0-18.68.1-24.98.21-49.97.32-74.95,0-1.53-.02-3.06.04-4.59.13-3.59-.27-7.46,5.24-7.33,5.34.12,4.31,4.02,4.33,7.14.11,17.08.12,34.16.15,51.24.02,11.43,0,22.87,0,34.3l2.23.03v-24.34c.52,0,1.05,0,1.57-.01v44.14c.54,0,1.09,0,1.63,0,0-33.17,0-66.34,0-99.51,0-2.04-.11-4.08-.02-6.12.13-3.22-.51-7.63,4.56-6.66,1.78.34,3.05,3.98,4.29,6.25.43.79.08,2,.09,3.02.36,36.96.71,73.92,1.13,110.89.02,1.84.7,3.67,1.07,5.51.74-.11,1.49-.21,2.23-.32v-130.38h-49.2c-.17-1.11-.35-2.22-.52-3.34,2.14-.8,4.26-2.27,6.41-2.3,16.31-.28,32.63-.36,48.94-.33,7.5.02,14.89,8.38,14.95,17.12.19,29.57.21,59.14.25,88.71.05,37.98,0,75.97.18,113.95.01,2.96,1.06,8.07,2.57,8.45,4.24,1.07,9.06.61,13.45-.25,1.01-.19,1.73-4.39,1.74-6.75.18-24.73.13-49.46.31-74.18.04-5.52.72-11.03,2.59-16.54.35,6.11.7,12.22,1.05,18.33.69.19,1.39.37,2.08.56,1.37-3.73,3.58-7.38,3.93-11.19.68-7.59.15-15.29.55-22.92.09-1.71,1.96-3.33,3-4.99,1.12,1.68,3.14,3.32,3.21,5.03.33,8.83.15,17.68.15,26.52,1,.3,2.01.59,3.01.89,1.02-1.99,2.7-3.9,2.93-5.97.64-5.81.36-11.73,1.08-17.53.4-3.19-2.66-8.67,3.63-8.69,1.15,0,3.12,5.86,3.31,9.11.55,9.15.21,18.35.57,27.52.16,4.08,1.18,8.12,1.8,12.17.76-.07,1.52-.13,2.29-.2.24-2.1.66-4.2.69-6.31.18-13.51.03-27.03.52-40.53.23-6.17-1.48-8.85-8.05-8.37-6.77.49-13.61.11-20.97.11,9.05-12.81,13.9-15.16,27.46-11.12,14.12,4.21,27.98,9.39,41.75,14.65,1.95.75,3.87,4.36,3.96,6.72.41,11.14.18,22.31.18,33.94h24.46c0-13.14-.12-26.06.03-38.98.18-15.55.47-31.1,1.05-46.63.08-2.19,2.08-4.31,3.2-6.46,1.13,2.18,3.15,4.32,3.24,6.54.36,9.38.15,18.78.15,28.17.84.15,1.69.3,2.53.44.49-2.09,1.33-4.16,1.42-6.27.32-7.89.11-15.82.76-23.68.16-1.97,2.78-3.74,4.27-5.59,1.23,1.83,3.42,3.62,3.52,5.51.4,7.88.17,15.79,1.97,23.99.7-4.02,1.64-8.03,2.04-12.08.4-4.05-.26-8.26.58-12.18.43-2.03,3.11-3.57,4.77-5.33,1.47,1.91,4.05,3.74,4.22,5.76.61,7.09.33,14.26.52,21.39.05,2.07.53,4.13.82,6.2.87-.04,1.74-.09,2.61-.13,0-11.77.15-23.54-.27-35.29-.04-1.03-3.87-2.66-5.99-2.73-8.88-.31-17.77-.13-26.67-1.63h30.29c0-.43,0-.85,0-1.28h-33.34c-.29-.84-.58-1.68-.87-2.52,3.4-1.38,6.73-3.68,10.22-3.98,12.56-1.06,25.18-1.45,37.78-2.09,0-.77.01-1.54.02-2.31-7.02,0-14.03,0-21.05,0s-14.7,0-22.49,0v-20.63c.74-.15,1.49-.31,2.23-.46,1.26,5.29,2.52,10.58,3.78,15.87.61,0,1.22.01,1.82.02v-43.63c1.25-.03,2.49-.06,3.74-.1,4.44,12.9.39,26.83,2.74,39.98.76,0,1.53,0,2.29,0v-39.95c1.23-.06,2.45-.12,3.68-.18,6.92,9.37.89,21.19,5.11,32.83,0-9.81-.27-18.07.18-26.28.12-2.25,2.42-4.37,3.73-6.56,1.29,2.2,3.53,4.33,3.69,6.6.49,7.05.18,14.16.18,21.24.72,0,1.45.01,2.17.02,0-8.66.29-17.34-.27-25.96-.1-1.56-3.65-3.98-5.74-4.13-7.05-.52-14.15-.2-21.35-1.43,11.87-5.27,25.08-1,37.09-4.85.03-.76.06-1.53.09-2.29h-35.55c-.05-1.02-.1-2.05-.15-3.07,7.6-6.35,17.4-3.79,26.33-6.72-6.2-.47-12.4-.95-18.61-1.43q.7-4.53,25.35-9.2c-6.96-.76-13.92-1.53-20.88-2.29-.02-.86-.04-1.72-.07-2.58,4.41-.63,8.83-1.25,15.41-2.18-3.37-2.57-5.26-4.02-7.43-5.67,1.07-.51,2.63-1.25,4.15-1.97-5.39-19.11,2.54-36.87,2.51-55.25.87-.03,1.75-.07,2.62-.1.58,2.79,1.3,5.56,1.71,8.38,1.91,13.11,2.57,26.55,5.98,39.26,2.57,9.6,8.87,18.15,13.05,27.38,5.74,12.67,14.76,24.15,16.03,38.48,1.06,11.9.49,23.93,1.14,35.88.19,3.5,2.23,6.88,3.18,10.38.71,2.6,1.44,5.31,1.45,7.97.03,34.92-.07,69.85-.14,104.77,0,3.47,0,6.94,0,12.3,12.25-8.35,18.7-.29,26.84,8.6,0-5.04,0-7.69,0-10.34.09-28.3.11-56.59.4-84.89.03-2.97,1.69-5.92,2.59-8.88.89.17,1.78.33,2.67.5.56,10.29,1.12,20.58,1.68,30.87.71-.05,1.41-.1,2.12-.15,3.25-16.3-.61-33.53,4.93-49.53.77,0,1.55,0,2.32,0,.67,13.81,1.34,27.62,2.02,41.43.81-.02,1.62-.04,2.43-.06,4.41-18.83-3.15-39.28,5.37-57.55.98.06,1.97.13,2.95.19,0,12.34,0,24.69,0,37.03,0,2.04-.23,4.13.13,6.1.27,1.5,1.32,2.86,2.02,4.28.98-1.42,2.76-2.81,2.82-4.27.52-13.24.61-26.5,1.16-39.74.11-2.64,1.6-5.22,2.45-7.82.96.19,1.92.38,2.88.58.19,2.62.52,5.24.55,7.86.15,17.59.13,35.18.43,52.77.06,3.25,1.32,6.48,2.03,9.71l2.8-.23c0-2.87-.01-5.75,0-8.62.16-29.06.42-58.12.41-87.18,0-8.53,2.75-15.74,8.89-23.82,2.89,11.25,4.38,21.38,8.08,30.62,9.01,22.49,7.69,45.88,7.78,69.23.15,40.79.41,81.58.61,122.36.02,3.53,0,7.06,0,11.12h35.87c0-3.2-.03-6.16,0-9.12.41-41.29.77-82.59,1.35-123.88.05-3.74,1.51-7.46,2.31-11.19.78.07,1.57.13,2.35.2.82,14.5,1.63,29.01,2.45,43.51,1.03.02,2.07.03,3.1.05.57-6.64,1.51-13.28,1.65-19.93.3-14.53.03-29.06.39-43.59.09-3.73,1.69-7.42,2.6-11.13,1.09.11,2.18.23,3.27.34v83.2c1.11.14,2.22.28,3.33.42.87-3.35,2.43-6.69,2.5-10.06.42-20.64.4-41.3.86-61.94.06-2.48,2.14-4.92,3.29-7.38,1.39,2.5,3.91,4.96,3.99,7.5.57,18.6.56,37.21.98,55.82.07,3.1,1.28,6.17,1.97,9.26l2.4-.4v-115.3l1.7-.58c1.82,3.69,3.78,7.32,5.42,11.09,8.85,20.3,17.76,40.57,26.31,61,1.51,3.6,1.98,7.87,1.99,11.84.14,49.46.1,98.91.11,148.37,0,3.27,0,6.54,0,9.67,9.93,1.76,15.69,8.35,16.01,18.26.27,8.35.06,16.72.06,25.48ZM625.36,428.82c10.22.09,17.67-5.35,19.28-12.5,1.63-7.2-2.55-15.1-9.56-18.08-8.15-3.46-14.85-1.12-20.42,6.43-1.35,1.83-4.3,3.48-6.52,3.5-33.13.24-66.26.25-99.39.05-2.22-.01-5.22-1.61-6.51-3.43-6.22-8.77-15.85-10.94-23.64-4.84-7,5.48-8.19,16.5-2.5,23.24,6.17,7.31,17.06,7.48,24.56,1.14,2.76-2.33,6.96-4.1,10.53-4.13,31.09-.29,62.18-.11,93.28-.13,5.14,0,9.81-.02,13.56,4.87,1.89,2.45,5.98,3.21,7.36,3.89ZM548.44,426.48v103.7h15.13v-103.7h-15.13ZM489.35,494.54v.05c10.95,0,21.92.25,32.86-.19,2.57-.1,6.9-2.18,7.24-3.96,1.07-5.56-3.98-4.17-6.74-3.84-5.44.64-7.6-1.97-9.3-6.6-4.3-11.69-9.06-23.2-13.56-34.82-1.64-4.24-3.48-7.62-9.01-7.74-5.66-.12-8.32,2.78-10.11,7.46-4.36,11.39-9.03,22.68-13.08,34.18-1.92,5.46-4.32,8.6-10.76,7.71-1.79-.25-3.98,2.3-5.99,3.57,2.12,1.4,4.2,3.91,6.37,4,10.68.42,21.39.19,32.09.19ZM588.5,494.42c23.68,0,47.08.09,70.47-.16,2.07-.02,4.13-2.29,6.19-3.51-2-1.35-4.1-3.97-5.97-3.82-5.55.44-7.37-2.42-9.1-6.91-4.65-12.1-9.44-24.16-14.88-35.91-1.28-2.77-5.03-5.19-8.13-6.13-4.63-1.39-7.32,1.77-9,6.1-4.6,11.84-9.75,23.48-14.05,35.43-1.93,5.37-4.45,8-10.34,7.16-4.95-.71-7.32,1.36-5.19,7.75ZM622.61,578.75c-1.62-8.06-6-10.12-12.44-10.08-36.14.2-72.29.23-108.43.32-1.52,0-3.54-.49-4.48.28-2.57,2.1-4.7,4.75-7,7.18,2.45,1.05,4.9,3.01,7.36,3.02,38.69.17,77.38.11,116.06.04,2.7,0,5.39-.45,8.93-.76ZM555.05,562.75v-.2c3.31,0,6.62-.01,9.92,0,13.23.07,26.47.33,39.69.02,1.98-.05,3.9-2.71,5.85-4.16-1.8-1.63-3.36-3.82-5.47-4.72-1.96-.83-4.51-.32-6.79-.32-26.21-.05-52.42-.09-78.63-.13-4.07,0-8.3-.62-12.15.32-2.28.56-3.94,3.62-5.88,5.55,2.04,1.21,4.06,3.44,6.13,3.48,15.77.29,31.55.16,47.32.16ZM521.16,543.54c.25.94.49,1.87.74,2.81h69.15c-.37-6.21-5.56-7.03-9.67-7.15-16.46-.48-32.94-.57-49.4-.14-3.65.1-7.22,2.92-10.83,4.48ZM518.55,500.96h-56c13.3,14.29,46.86,13.99,56,0ZM597.04,500.54c10.95,15,47.09,14.85,55.68,0h-55.68ZM544.04,401.91h22.92c-2.09-8.07-2.9-15.45-5.95-21.75-2.79-5.75-8.44-5.71-11.16.07-2.99,6.33-3.78,13.7-5.8,21.68ZM726.58,417.2c-1.6-.13-3.19-.26-4.79-.39-1.53,25.15.37,50.38,1.84,75.6,4.23-24.97,1.98-50.14,2.95-75.21ZM282.23,412.52c-5.57,13.22,0,25.61,1.6,38.29.24-12.82.69-25.65-1.6-38.29ZM976.3,509.47c-.56,0-1.12-.01-1.68-.02v19.07c.06,0,.12.02.18.03v-11.13l1.29-.02v12.73l.2-.08v-20.58Z"/>
    <path class="cls-3" d="M230.73,849.47h642.54c-37.98,39.85-79.53,71.42-126.69,95.49-47.15,24.07-97.02,39.95-149.84,44.46-144.26,12.31-266-35.54-367.12-137.23l1.11-2.72ZM514.83,935.32v-43.78h-11.64v20.02c-10.98-5.08-12.65-21.82-28.32-20.62v43.19h11.91v-20.04c10.2,6.39,13.74,20.54,28.05,21.23ZM626.72,920.71c-1.38.82-2.81,1.83-4.37,2.56-5.32,2.46-10.61,2.62-14.55-2.25-3.75-4.65-3.58-9.98-.17-14.85,3.71-5.29,9.25-5.96,14.2-2.91,6.61,4.07,8.84-.05,11.74-4.27-9.74-9.6-21.69-10.98-31.33-3.89-8.7,6.4-11.49,20.07-6.02,29.54,5.57,9.67,17.8,13.75,28.52,9.52,8.77-3.46,9.25-6.23,1.99-13.46ZM577.59,892.25c-.39-.82-.78-1.63-1.17-2.45-4.25,1.34-9.25,1.71-12.55,4.28-3.51,2.73-5.4,7.54-8.41,12.06-3.37-4.83-5.4-9.68-9.03-12.39-3.26-2.43-8.28-2.51-12.52-3.62,6.16,15.49,20.4,26.1,14.87,44.29h12.2c-5.18-18.44,9.79-28.59,16.61-42.16ZM692.44,917.1v.12c4.05,0,8.21.54,12.12-.22,2.09-.41,5.27-3.15,5.19-4.7-.1-1.98-2.87-5.3-4.7-5.46-8.05-.68-16.21-.8-24.27-.24-2.11.15-4,3.49-5.99,5.36,2.08,1.71,3.95,4.36,6.3,4.91,3.61.84,7.55.22,11.35.22ZM417.15,916.88s0,.04,0,.05c3.54,0,7.22.61,10.56-.21,2.4-.58,4.33-3.07,6.47-4.71-2.07-1.85-4.01-5.08-6.24-5.3-7.26-.71-14.66-.68-21.94-.12-1.97.15-3.71,3.2-5.56,4.92,1.78,1.79,3.31,4.63,5.4,5.13,3.59.85,7.52.24,11.31.24Z"/>
    <path class="cls-3" d="M50.79,554.24c0-25.62-1.27-50.32.27-74.84,2.93-46.67,12.32-92.27,28.59-136.2,43.9-118.5,119.59-210.89,228.45-275.47C367.06,32.76,430.71,10.81,498.92,3.13c116.79-13.15,223.11,15.33,319.63,81.69,103.98,71.48,175.99,166.86,213.07,287.74,11.21,36.54,17.4,74.29,19.45,112.53,1.02,19.05.84,38.16,1.12,57.25.04,2.48-.37,4.97-.67,8.7-8.02-3.75-15.46-6.78-22.35-10.77-1.8-1.04-2.64-5.05-2.64-7.69-.04-45.24-5.09-89.89-16.04-133.77-21.76-87.17-65.95-161.66-129.14-225.01-57.48-57.62-123.69-101.65-201.66-126.87-33.8-10.93-68.49-17.36-103.88-19.24-108.78-5.78-206.3,26.43-293.58,90.12-93.25,68.05-156.19,157.81-187.67,269.16-9.36,33.11-15.08,66.88-16.5,101.31-.63,15.25-.86,30.52-1.9,45.74-.21,3.13-2.49,7.11-5.07,8.88-6.19,4.25-13.11,7.42-20.3,11.33Z"/>
    <path class="cls-3" d="M177.08,849.51c11.94,0,21.38-.41,30.75.23,3.04.21,6.48,2.62,8.74,4.97,28.07,29.11,58.75,55.04,92.99,76.61,67.15,42.3,139.86,67.21,219.6,71.13,121.29,5.96,226.48-33,317.44-112.27,13.05-11.37,25.02-23.98,37.93-35.52,3.03-2.71,7.76-4.47,11.87-4.84,8.32-.74,16.74-.22,25.48.94-100.93,120.15-228.08,183.13-386.65,178.96-91.35-2.4-174.22-30.36-250.03-80.55-40.79-27-76.68-59.3-108.14-99.67Z"/>
    <path class="cls-4" d="M625.36,428.82c-1.38-.68-5.47-1.43-7.36-3.89-3.75-4.88-8.42-4.87-13.56-4.87-31.09.03-62.19-.16-93.28.13-3.56.03-7.77,1.8-10.53,4.13-7.5,6.33-18.39,6.17-24.56-1.14-5.68-6.74-4.5-17.76,2.5-23.24,7.79-6.1,17.43-3.93,23.64,4.84,1.29,1.82,4.29,3.42,6.51,3.43,33.13.2,66.26.19,99.39-.05,2.23-.02,5.18-1.67,6.52-3.5,5.57-7.55,12.27-9.9,20.42-6.43,7.01,2.98,11.19,10.88,9.56,18.08-1.61,7.15-9.06,12.58-19.28,12.5Z"/>
    <path class="cls-4" d="M548.44,426.48h15.13v103.7h-15.13v-103.7Z"/>
    <path class="cls-4" d="M489.35,494.54c-10.7,0-21.41.23-32.09-.19-2.17-.08-4.25-2.6-6.37-4,2.01-1.27,4.19-3.82,5.99-3.57,6.45.9,8.84-2.25,10.76-7.71,4.05-11.5,8.72-22.79,13.08-34.18,1.79-4.68,4.45-7.58,10.11-7.46,5.53.12,7.37,3.5,9.01,7.74,4.5,11.62,9.26,23.13,13.56,34.82,1.71,4.64,3.86,7.24,9.3,6.6,2.76-.32,7.81-1.72,6.74,3.84-.34,1.78-4.66,3.85-7.24,3.96-10.94.44-21.9.19-32.86.19v-.05ZM505.07,486.08c-4.81-12.21-9.47-24.05-14.76-37.49-5.31,13.39-9.96,25.1-14.88,37.49h29.64Z"/>
    <path class="cls-4" d="M588.5,494.42c-2.14-6.39.23-8.46,5.19-7.75,5.89.85,8.41-1.79,10.34-7.16,4.3-11.95,9.45-23.58,14.05-35.43,1.68-4.33,4.37-7.49,9-6.1,3.11.94,6.85,3.36,8.13,6.13,5.43,11.75,10.23,23.81,14.88,35.91,1.72,4.48,3.55,7.35,9.1,6.91,1.88-.15,3.98,2.47,5.97,3.82-2.06,1.22-4.11,3.49-6.19,3.51-23.39.25-46.79.16-70.47.16ZM641.38,486.08c-4.88-12.31-9.47-23.88-14.68-37.01-5.2,13.32-9.7,24.85-14.44,37.01h29.12Z"/>
    <path class="cls-4" d="M622.61,578.75c-3.54.31-6.23.75-8.93.76-38.69.07-77.38.13-116.06-.04-2.46-.01-4.91-1.97-7.36-3.02,2.3-2.43,4.43-5.08,7-7.18.94-.77,2.96-.27,4.48-.28,36.14-.09,72.29-.12,108.43-.32,6.44-.04,10.82,2.02,12.44,10.08Z"/>
    <path class="cls-4" d="M555.05,562.75c-15.78,0-31.55.13-47.32-.16-2.06-.04-4.09-2.26-6.13-3.48,1.94-1.93,3.61-4.99,5.88-5.55,3.84-.94,8.08-.32,12.15-.32,26.21.03,52.42.08,78.63.13,2.29,0,4.84-.51,6.79.32,2.11.89,3.67,3.09,5.47,4.72-1.95,1.45-3.87,4.12-5.85,4.16-13.22.3-26.46.04-39.69-.02-3.31-.02-6.62,0-9.92,0v.2Z"/>
    <path class="cls-4" d="M521.16,543.54c3.61-1.57,7.18-4.39,10.83-4.48,16.46-.43,32.94-.33,49.4.14,4.11.12,9.29.95,9.67,7.15h-69.15c-.25-.94-.49-1.87-.74-2.81Z"/>
    <path class="cls-4" d="M518.55,500.96c-9.14,13.99-42.7,14.29-56,0h56Z"/>
    <path class="cls-4" d="M597.04,500.54h55.68c-8.6,14.85-44.74,15-55.68,0Z"/>
    <path class="cls-4" d="M544.04,401.91c2.02-7.98,2.82-15.35,5.8-21.68,2.72-5.77,8.37-5.82,11.16-.07,3.05,6.3,3.87,13.68,5.95,21.75h-22.92Z"/>
    <path class="cls-4" d="M726.58,417.2c-.97,25.07,1.28,50.24-2.95,75.21-1.48-25.22-3.38-50.45-1.84-75.6,1.6.13,3.19.26,4.79.39Z"/>
    <path class="cls-4" d="M282.23,412.52c2.29,12.64,1.84,25.47,1.6,38.29-1.6-12.68-7.17-25.07-1.6-38.29Z"/>
    <path class="cls-4" d="M976.3,509.47v20.58l-.2.08v-12.73l-1.29.02v11.13c-.06,0-.12-.02-.18-.03v-19.07c.56,0,1.12.01,1.68.02Z"/>
    <path class="cls-4" d="M514.83,935.32c-14.31-.69-17.85-14.84-28.05-21.23v20.04h-11.91v-43.19c15.67-1.2,17.34,15.53,28.32,20.62v-20.02h11.64v43.78Z"/>
    <path class="cls-4" d="M626.72,920.71c7.26,7.22,6.78,10-1.99,13.46-10.72,4.23-22.94.14-28.52-9.52-5.46-9.48-2.68-23.14,6.02-29.54,9.63-7.09,21.59-5.71,31.33,3.89-2.89,4.22-5.13,8.34-11.74,4.27-4.95-3.05-10.49-2.38-14.2,2.91-3.41,4.86-3.58,10.2.17,14.85,3.94,4.87,9.22,4.71,14.55,2.25,1.56-.72,2.99-1.74,4.37-2.56Z"/>
    <path class="cls-4" d="M577.59,892.25c-6.81,13.58-21.78,23.73-16.61,42.16h-12.2c5.53-18.19-8.71-28.8-14.87-44.29,4.24,1.11,9.26,1.19,12.52,3.62,3.63,2.71,5.67,7.56,9.03,12.39,3.01-4.51,4.9-9.32,8.41-12.06,3.29-2.57,8.3-2.94,12.55-4.28.39.82.78,1.63,1.17,2.45Z"/>
    <path class="cls-4" d="M692.44,917.1c-3.8,0-7.74.62-11.35-.22-2.35-.55-4.22-3.2-6.3-4.91,1.99-1.87,3.88-5.21,5.99-5.36,8.06-.56,16.22-.44,24.27.24,1.83.15,4.6,3.48,4.7,5.46.08,1.55-3.11,4.29-5.19,4.7-3.9.76-8.06.22-12.12.22v-.12Z"/>
    <path class="cls-4" d="M417.15,916.88c-3.79,0-7.72.62-11.31-.24-2.09-.5-3.62-3.34-5.4-5.13,1.85-1.72,3.59-4.76,5.56-4.92,7.28-.56,14.68-.59,21.94.12,2.23.22,4.17,3.45,6.24,5.3-2.14,1.64-4.07,4.13-6.47,4.71-3.34.81-7.03.21-10.56.21,0-.02,0-.04,0-.05Z"/>
    <path class="cls-3" d="M505.07,486.08h-29.64c4.92-12.39,9.57-24.11,14.88-37.49,5.29,13.44,9.95,25.28,14.76,37.49Z"/>
    <path class="cls-3" d="M641.38,486.08h-29.12c4.75-12.16,9.25-23.69,14.44-37.01,5.21,13.13,9.8,24.7,14.68,37.01Z"/>
    <path class="cls-3" d="M264.86,729.12h-33.25c5.65-13.77,11.07-26.97,16.92-41.25,5.7,14.4,10.89,27.52,16.32,41.25Z"/>
    <path class="cls-3" d="M816.21,729.04h-32.96c5.47-13.74,10.69-26.87,16.51-41.47,5.7,14.38,10.93,27.55,16.45,41.47Z"/>
    <path class="cls-3" d="M1112.47,717.1c-.07-29.06-.03-58.12-.37-87.18-.18-15.75-8.9-25.85-24.3-28.74-4.97-.93-10.1-1.42-15.16-1.43-272.78-.07-545.55-.07-818.33-.07-72.15,0-144.29-.03-216.44.13-21.69.05-38.21,10.26-37.88,37.39.65,53.78.19,107.58.15,161.37,0,14.55,6.66,25.38,19.88,30.59,7.53,2.97,16.32,3.78,24.55,3.79,170.29.2,340.58.15,510.88.15v.21c123.9,0,247.79,0,371.69,0,49.46,0,98.91.06,148.37-.13,23.04-.09,37.03-14.41,37.04-37.31,0-26.26-.02-52.52-.08-78.77Z"/>
    <path class="cls-3" d="M660.75,917.43c-.01-13.57,0-27.13-.06-40.7-.03-7.35-1.55-12.06-4.25-13.42-.87-.44-1.76-.67-2.65-.67-47.66-.03-95.32-.03-142.98-.03-12.61,0-25.21-.02-37.82.06-3.79.02-6.68,4.79-6.62,17.45.11,25.1.03,50.22.03,75.32,0,6.79,1.16,11.85,3.47,14.28,1.32,1.38,2.85,1.76,4.29,1.77,29.75.1,59.51.07,89.26.07v.1c21.65,0,43.3,0,64.94,0,8.64,0,17.28.03,25.92-.06,4.02-.04,6.47-6.73,6.47-17.41,0-12.26,0-24.51-.01-36.77Z"/>
    <text class="cls-2" transform="translate(154.02 770.47)"><tspan class="cls-10" x="0" y="0">CA</tspan><tspan class="cls-8" x="222.23" y="0">S</tspan><tspan x="310.8" y="0">E </tspan><tspan class="cls-9" x="449.21" y="0">L</tspan><tspan class="cls-6" x="544.01" y="0">A</tspan><tspan x="638.66" y="0">W</tspan></text>
    <text class="cls-1" transform="translate(470.49 940.17)"><tspan class="cls-5" x="0" y="0">N</tspan><tspan class="cls-7" x="63.62" y="0">Y</tspan><tspan x="117.05" y="0">C</tspan></text>
  </g>
</svg>